<svg width="512" height="512" viewBox="0 0 512 512" fill="none" xmlns="http://www.w3.org/2000/svg">
<path fill-rule="evenodd" clip-rule="evenodd" d="M255.971 6C290.88 6 323.517 12.4117 353.869 25.2357C384.22 38.0629 410.749 55.6058 433.457 77.8648C456.165 100.126 473.936 126.459 486.764 156.844C499.587 187.227 506 219.873 506 254.777C506 289.682 499.588 322.439 486.764 353.039C473.936 383.638 456.164 410.315 433.457 433.07C410.748 455.822 384.173 473.665 353.729 486.6C323.288 499.532 290.667 506 255.865 506C221.069 506 188.472 499.532 158.072 486.6C127.671 473.665 101.112 455.823 78.4031 433.07C55.6944 410.314 37.9456 383.642 25.1655 353.062C12.3864 322.483 6 289.732 6 254.824C6.00062 219.918 12.3873 187.265 25.1655 156.867C37.9456 126.466 55.6944 100.126 78.4031 77.8648C101.111 55.6047 127.658 38.0633 158.037 25.2357C188.417 12.412 221.062 6.00032 255.971 6ZM199.902 346.299C205.397 370.053 212.759 391.503 221.981 410.64C231.206 429.773 242.473 446.421 255.784 460.578C269.57 446.696 280.963 430.508 289.949 412.033C297.812 395.867 304.56 377.067 310.203 355.636L312.555 346.299H199.902ZM72.2486 346.299C86.6254 373.778 103.732 395.541 123.556 411.6C143.38 427.662 169.913 441.44 203.154 452.926C193.475 438.551 185.191 422.712 178.302 405.41C172.271 390.273 167.006 373.293 162.507 354.478L160.623 346.299H72.2486ZM352.524 346.299C347.276 367.864 341.132 387.336 334.095 404.708C327.059 422.08 318.69 437.953 309.009 452.33C337.062 443.735 362.407 430.208 385.028 411.74C406.236 394.426 423.681 374.165 437.376 350.968L440.067 346.299H352.524ZM59.5184 202.897C56.8072 212.177 54.9251 220.562 53.8787 228.053C52.8323 235.546 52.3108 244.487 52.3108 254.871C52.3108 265.157 52.8327 274.37 53.8787 282.508C54.9251 290.647 56.8066 299.365 59.5184 308.647H153.72C152.426 298.169 151.685 288.658 151.485 280.121C151.285 271.582 151.181 263.162 151.181 254.871C151.181 244.887 151.39 236.049 151.789 228.357C152.089 222.588 152.636 216.37 153.439 209.707L154.328 202.897H59.5184ZM192.858 202.897C191.261 214.973 190.262 224.657 189.863 231.95C189.463 239.242 189.266 246.883 189.266 254.871C189.266 263.161 189.463 271.176 189.863 278.916C190.262 286.656 191.272 296.569 192.881 308.647H319.598C321.1 296.569 322.032 286.656 322.383 278.916C322.735 271.176 322.91 263.161 322.91 254.871C322.91 246.883 322.735 239.242 322.383 231.95C322.12 226.481 321.522 219.668 320.605 211.509L319.587 202.897H192.858ZM360.387 234.816C360.786 241.933 360.995 248.621 360.995 254.871C360.995 263.56 360.693 271.774 360.094 279.512C359.495 287.252 358.843 296.969 358.14 308.647H452.821C455.026 299.365 456.664 290.647 457.759 282.508C458.853 274.369 459.408 265.157 459.408 254.871C459.408 244.487 458.853 235.546 457.759 228.053C456.938 222.437 455.81 216.317 454.365 209.695L452.821 202.897H358.737C359.44 217.064 359.987 227.703 360.387 234.816ZM202.558 59.2141C173.213 66.6108 147.448 79.2108 125.276 97.0304C103.102 114.851 85.4279 137.547 72.2486 165.104H161.114C165.579 143.634 171.082 124.532 177.624 107.807C184.165 91.0822 192.479 74.8843 202.558 59.2141ZM255.784 51.3982C243.596 62.5959 233.211 76.9573 224.625 94.4796C216.038 112.004 207.793 135.55 199.902 165.104H313.151C308.95 144.945 301.841 124.824 291.81 104.753C281.777 84.6799 269.762 66.8941 255.784 51.3982ZM308.413 58.6057C318.094 73.0792 326.462 88.7865 333.499 105.712C340.535 122.637 346.668 142.438 351.915 165.104H440.067C426.792 138.442 408.842 115.872 386.221 97.4048C363.601 78.9381 337.663 66.0021 308.413 58.6057Z" fill="black"/>
</svg>
